<?xml version="1.0" encoding="UTF-8"?>
<svg xmlns="http://www.w3.org/2000/svg" width="760" height="160" role="img" aria-label="Visitors (GitHub Traffic)">
  <defs>
    <linearGradient id="g" x1="0" y1="0" x2="1" y2="1">
      <stop offset="0%" stop-color="#00E7F7"/><stop offset="50%" stop-color="#7C3AED"/><stop offset="100%" stop-color="#22C55E"/>
    </linearGradient>
    <style>
      .mono{ font:700 24px 'JetBrains Mono',Consolas,monospace }
      .small{ font:700 12px 'JetBrains Mono',Consolas,monospace }
      .label{ fill:#94a3b8 }
      .text{ fill:#cbd5e1 }
    </style>
  </defs>
  <rect width="100%" height="100%" rx="16" fill="#0b1220"/>
  <rect x="1.5" y="1.5" width="757" height="157" rx="14" fill="none" stroke="url(#g)" stroke-width="2"/>

 
  <g transform="translate(24,18)">
    <text class="label" x="0" y="0" font-size="14">VISITORS</text>
  </g>

  <!-- ODOMETER -->
  <g transform="translate(24,46)">
    
    <g transform="translate(0,8)">
      <rect x="0" y="-22" width="30" height="40" rx="8" fill="#0f172a" stroke="#1f2937"/>
      <text class="mono" x="6" y="8" fill="url(#g)">0</text>
    </g>
  
    <g transform="translate(34,8)">
      <rect x="0" y="-22" width="30" height="40" rx="8" fill="#0f172a" stroke="#1f2937"/>
      <text class="mono" x="6" y="8" fill="url(#g)">0</text>
    </g>
  
    <g transform="translate(68,8)">
      <rect x="0" y="-22" width="30" height="40" rx="8" fill="#0f172a" stroke="#1f2937"/>
      <text class="mono" x="6" y="8" fill="url(#g)">0</text>
    </g>
  
    <g transform="translate(102,8)">
      <rect x="0" y="-22" width="30" height="40" rx="8" fill="#0f172a" stroke="#1f2937"/>
      <text class="mono" x="6" y="8" fill="url(#g)">0</text>
    </g>
  
    <g transform="translate(136,8)">
      <rect x="0" y="-22" width="30" height="40" rx="8" fill="#0f172a" stroke="#1f2937"/>
      <text class="mono" x="6" y="8" fill="url(#g)">4</text>
    </g>
  
    <g transform="translate(170,8)">
      <rect x="0" y="-22" width="30" height="40" rx="8" fill="#0f172a" stroke="#1f2937"/>
      <text class="mono" x="6" y="8" fill="url(#g)">2</text>
    </g>
  
    <g transform="translate(204,8)">
      <rect x="0" y="-22" width="30" height="40" rx="8" fill="#0f172a" stroke="#1f2937"/>
      <text class="mono" x="6" y="8" fill="url(#g)">8</text>
    </g>
  
  </g>

  <!-- SPARKLINE (k=14 días) -->
  <g transform="translate(300,20)">
    <text class="label small" x="0" y="0">LAST 14 DAYS</text>
    <rect x="0" y="8" width="420" height="54" rx="8" fill="#0f172a"/>
    <polyline fill="none" stroke="url(#g)" stroke-width="2.5" points="6.0,38.0 37.4,6.0 68.8,47.9 100.2,48.0 131.5,48.0 162.9,48.0 194.3,48.0 225.7,48.0 257.1,48.0 288.5,48.0 319.8,48.0 351.2,48.0 382.6,48.0 414.0,48.0"/>
    <text class="small label" x="0" y="76">2025-10-11</text>
          <text class="small label" x="360" y="76">2025-10-24</text>
  </g>

  <!-- STATS -->
  <g transform="translate(24,125)">
    <text class="small label" x="0" y="0">TODAY</text>
    <text class="small" x="70" y="0" fill="url(#g)">0</text>
    <text class="small label" x="130" y="0">AVG(7d)</text>
    <text class="small" x="220" y="0" fill="url(#g)">0</text>
    <text class="small label" x="300" y="0">UPDATED</text>
    <text class="small text" x="380" y="0">2025-10-24 22:22 UTC</text>
  </g>
</svg>