<?xml version="1.0" encoding="UTF-8"?>
<svg xmlns="http://www.w3.org/2000/svg" width="760" height="140" role="img" aria-label="Visitors (GitHub Traffic)">
  <defs>
    <linearGradient id="g" x1="0" y1="0" x2="1" y2="1">
      <stop offset="0%" stop-color="#00E7F7"/><stop offset="50%" stop-color="#7C3AED"/><stop offset="100%" stop-color="#22C55E"/>
    </linearGradient>
    <style>
      .mono{ font:700 24px 'JetBrains Mono',Consolas,monospace }
      .small{ font:700 13px 'JetBrains Mono',Consolas,monospace }
      .label{ fill:#94a3b8 }
    </style>
  </defs>
  <rect width="100%" height="100%" rx="16" fill="#0b1220"/>
  <rect x="1.5" y="1.5" width="757" height="137" rx="14" fill="none" stroke="url(#g)" stroke-width="2"/>

  <!-- ODOMETER -->
  <g transform="translate(24,32)">
    <text class="label" x="0" y="-6">VISITORS</text>
    
    <g transform="translate(0,8)">
      <rect x="0" y="-22" width="30" height="40" rx="8" fill="#0f172a" stroke="#1f2937"/>
      <text class="mono" x="6" y="8" fill="url(#g)">0</text>
    </g>
  
    <g transform="translate(34,8)">
      <rect x="0" y="-22" width="30" height="40" rx="8" fill="#0f172a" stroke="#1f2937"/>
      <text class="mono" x="6" y="8" fill="url(#g)">0</text>
    </g>
  
    <g transform="translate(68,8)">
      <rect x="0" y="-22" width="30" height="40" rx="8" fill="#0f172a" stroke="#1f2937"/>
      <text class="mono" x="6" y="8" fill="url(#g)">0</text>
    </g>
  
    <g transform="translate(102,8)">
      <rect x="0" y="-22" width="30" height="40" rx="8" fill="#0f172a" stroke="#1f2937"/>
      <text class="mono" x="6" y="8" fill="url(#g)">0</text>
    </g>
  
    <g transform="translate(136,8)">
      <rect x="0" y="-22" width="30" height="40" rx="8" fill="#0f172a" stroke="#1f2937"/>
      <text class="mono" x="6" y="8" fill="url(#g)">3</text>
    </g>
  
    <g transform="translate(170,8)">
      <rect x="0" y="-22" width="30" height="40" rx="8" fill="#0f172a" stroke="#1f2937"/>
      <text class="mono" x="6" y="8" fill="url(#g)">0</text>
    </g>
  
    <g transform="translate(204,8)">
      <rect x="0" y="-22" width="30" height="40" rx="8" fill="#0f172a" stroke="#1f2937"/>
      <text class="mono" x="6" y="8" fill="url(#g)">8</text>
    </g>
  
  </g>

  <!-- SPARKLINE (30d) -->
  <g transform="translate(300,24)">
    <text class="label small" x="0" y="0">LAST 30 DAYS</text>
    <rect x="0" y="8" width="420" height="54" rx="8" fill="#0f172a"/>
    <polyline fill="none" stroke="url(#g)" stroke-width="2.5" points="6.0,48.0 20.1,48.0 34.1,48.0 48.2,48.0 62.3,48.0 76.3,48.0 90.4,48.0 104.5,48.0 118.6,48.0 132.6,48.0 146.7,48.0 160.8,48.0 174.8,48.0 188.9,48.0 203.0,48.0 217.0,48.0 231.1,48.0 245.2,48.0 259.2,48.0 273.3,48.0 287.4,48.0 301.4,48.0 315.5,48.0 329.6,48.0 343.7,48.0 357.7,48.0 371.8,48.0 385.9,48.0 399.9,32.8 414.0,6.0"/>
    <text class="small label" x="0" y="74">2025-09-13</text>
          <text class="small label" x="360" y="74">2025-10-12</text>
  </g>

  <!-- STATS -->
  <g transform="translate(24,100)">
    <text class="small label" x="0" y="0">TODAY</text>
    <text class="small" x="70" y="0" fill="url(#g)">226</text>
    <text class="small label" x="130" y="0">AVG(7d)</text>
    <text class="small" x="220" y="0" fill="url(#g)">44</text>
    <text class="small label" x="300" y="0">UPDATED</text>
    <text class="small" x="380" y="0">2025-10-12</text>
  </g>
</svg>